<svg width="535" height="341" viewBox="0 0 535 341" fill="none" xmlns="http://www.w3.org/2000/svg">
<path d="M264.752 56.6667C285.596 79.4864 297.442 109.1 298.086 140C297.442 170.9 285.596 200.514 264.752 223.333M264.752 56.6667C243.908 79.4864 232.063 109.1 231.419 140C232.063 170.9 243.908 200.514 264.752 223.333M264.752 56.6667C218.729 56.6667 181.419 93.9763 181.419 140C181.419 186.024 218.729 223.333 264.752 223.333M264.752 56.6667C310.776 56.6667 348.086 93.9763 348.086 140C348.086 186.024 310.776 223.333 264.752 223.333M185.586 115H343.919M185.586 165H343.919" stroke="#6228FF" stroke-width="5.3" stroke-linecap="round" stroke-linejoin="round"/>
<rect x="327.75" y="90" width="80" height="80" rx="18" fill="#5B5B5B"/>
<rect x="124.75" y="143" width="80" height="80" rx="18" fill="#323232"/>
<rect x="39.75" y="92" width="52" height="52" rx="11.7" fill="#5B5B5B"/>
<rect x="442.75" y="57" width="52" height="52" rx="11.7" fill="#323232"/>
<rect x="143.75" y="45" width="42" height="42" rx="9.45" fill="#323232"/>
<rect x="343.75" y="198" width="42" height="42" rx="9.45" fill="#323232"/>
</svg>
