<svg width="29" height="28" viewBox="0 0 29 28" fill="none" xmlns="http://www.w3.org/2000/svg">
<g id="Flutter logo">
<g id="Group">
<g id="Clip path group">
<mask id="mask0_528_5862" style="mask-type:luminance" maskUnits="userSpaceOnUse" x="3" y="0" width="23" height="28">
<g id="B">
<path id="Vector" d="M25.7362 12.9203L18.1991 20.46L25.7362 27.9998H17.1235L9.58379 20.46L17.1235 12.9203H25.7362ZM17.1235 0L3.125 13.9985L7.43266 18.3062L25.7362 0H17.1235Z" fill="white"/>
</g>
</mask>
<g mask="url(#mask0_528_5862)">
<g id="Group_2">
<path id="Vector_2" d="M9.58691 20.46L13.8919 24.7677L25.7366 12.9203H17.124L9.58691 20.46Z" fill="#39CEFD"/>
</g>
</g>
</g>
<g id="Clip path group_2">
<mask id="mask1_528_5862" style="mask-type:luminance" maskUnits="userSpaceOnUse" x="3" y="0" width="23" height="28">
<g id="D">
<path id="Vector_3" d="M25.7362 12.9203L18.1991 20.46L25.7362 27.9998H17.1235L9.58379 20.46L17.1235 12.9203H25.7362ZM17.1235 0L3.125 13.9985L7.43266 18.3062L25.7362 0H17.1235Z" fill="white"/>
</g>
</mask>
<g mask="url(#mask1_528_5862)">
<path id="Vector_4" d="M17.1235 0H25.7362L7.43266 18.3062L3.125 13.9985L17.1235 0Z" fill="#39CEFD"/>
</g>
</g>
<g id="Clip path group_3">
<mask id="mask2_528_5862" style="mask-type:luminance" maskUnits="userSpaceOnUse" x="3" y="0" width="23" height="28">
<g id="F">
<path id="Vector_5" d="M25.7362 12.9203L18.1991 20.46L25.7362 27.9998H17.1235L9.58379 20.46L17.1235 12.9203H25.7362ZM17.1235 0L3.125 13.9985L7.43266 18.3062L25.7362 0H17.1235Z" fill="white"/>
</g>
</mask>
<g mask="url(#mask2_528_5862)">
<path id="Vector_6" d="M13.8916 24.7676L17.1237 27.997H25.7363L18.1993 20.46L13.8916 24.7676Z" fill="#03569B"/>
</g>
</g>
<g id="Clip path group_4">
<mask id="mask3_528_5862" style="mask-type:luminance" maskUnits="userSpaceOnUse" x="3" y="0" width="23" height="28">
<g id="H">
<path id="Vector_7" d="M25.7362 12.9203L18.1991 20.46L25.7362 27.9998H17.1235L9.58379 20.46L17.1235 12.9203H25.7362ZM17.1235 0L3.125 13.9985L7.43266 18.3062L25.7362 0H17.1235Z" fill="white"/>
</g>
</mask>
<g mask="url(#mask3_528_5862)">
<path id="Vector_8" d="M20.2803 22.5545L18.1993 20.46L13.8916 24.7676L20.2803 22.5545Z" fill="url(#paint0_linear_528_5862)"/>
</g>
</g>
<g id="Clip path group_5">
<mask id="mask4_528_5862" style="mask-type:luminance" maskUnits="userSpaceOnUse" x="3" y="0" width="23" height="28">
<g id="K">
<path id="Vector_9" d="M25.7362 12.9203L18.1991 20.46L25.7362 27.9998H17.1235L9.58379 20.46L17.1235 12.9203H25.7362ZM17.1235 0L3.125 13.9985L7.43266 18.3062L25.7362 0H17.1235Z" fill="white"/>
</g>
</mask>
<g mask="url(#mask4_528_5862)">
<g id="Group_3">
<path id="Vector_10" d="M9.58594 20.4586L13.8937 16.1508L18.2017 20.4586L13.8937 24.7663L9.58594 20.4586Z" fill="#16B9FD"/>
</g>
</g>
</g>
<path id="Vector_11" d="M25.7362 12.9203L18.1991 20.46L25.7362 27.9998H17.1235L9.58379 20.46L17.1235 12.9203H25.7362ZM17.1235 0L3.125 13.9985L7.43266 18.3062L25.7362 0H17.1235Z" fill="url(#paint1_radial_528_5862)"/>
</g>
</g>
<defs>
<linearGradient id="paint0_linear_528_5862" x1="15.1487" y1="25.5989" x2="18.357" y2="22.3907" gradientUnits="userSpaceOnUse">
<stop stop-color="#1A237E" stop-opacity="0.4"/>
<stop offset="1" stop-color="#1A237E" stop-opacity="0"/>
</linearGradient>
<radialGradient id="paint1_radial_528_5862" cx="0" cy="0" r="1" gradientUnits="userSpaceOnUse" gradientTransform="translate(3.76022 1.90838) scale(34.2543)">
<stop stop-color="white" stop-opacity="0.1"/>
<stop offset="1" stop-color="white" stop-opacity="0"/>
</radialGradient>
</defs>
</svg>
