<svg width="28" height="15" viewBox="0 0 28 15" fill="none" xmlns="http://www.w3.org/2000/svg">
<g id="Golang logo">
<g id="Group">
<g id="Group_2">
<path id="Vector" d="M2.11244 5.50278C2.07404 5.50278 2.03563 5.46438 2.07404 5.42597L2.3429 5.04188C2.38131 5.00347 2.41971 4.96506 2.49653 4.96506H7.33604C7.37445 4.96506 7.41286 5.00347 7.37445 5.04188L7.144 5.38756C7.10559 5.42597 7.06718 5.46438 6.99036 5.46438L2.11244 5.50278ZM0.0767793 6.73186C0.0383705 6.73186 -3.84357e-05 6.69346 0.0383703 6.65505L0.307232 6.27096C0.345641 6.23255 0.38405 6.19414 0.460867 6.19414H6.64468C6.68309 6.19414 6.7215 6.23255 6.7215 6.27096L6.60627 6.65505C6.60627 6.69346 6.52945 6.73186 6.49105 6.73186H0.0767793ZM3.34153 7.99935C3.30312 7.99935 3.26471 7.96095 3.30312 7.92254L3.49516 7.57686C3.53357 7.53845 3.57198 7.50004 3.6488 7.50004H6.33741C6.37582 7.50004 6.41423 7.53845 6.41423 7.57686L6.37582 7.88413C6.37582 7.92254 6.33741 7.96095 6.299 7.96095L3.34153 7.99935ZM17.3991 5.23392L15.133 5.81005C14.941 5.84846 14.9026 5.88687 14.7489 5.65642C14.5569 5.42597 14.4033 5.27233 14.096 5.1571C13.251 4.73461 12.406 4.84983 11.6378 5.34915C10.716 5.92528 10.2551 6.80868 10.2551 7.92254C10.2551 8.99798 11.0233 9.88138 12.0987 10.035C13.0205 10.1502 13.7887 9.84298 14.4033 9.15162C14.5185 8.99798 14.6337 8.84435 14.7873 8.6523H12.1755C11.9067 8.6523 11.8299 8.46026 11.9067 8.22981C12.0987 7.80731 12.406 7.11595 12.598 6.77027C12.6364 6.69346 12.7517 6.53982 12.9437 6.53982H17.86C17.8216 6.92391 17.8216 7.26959 17.7832 7.65368C17.6296 8.61389 17.2839 9.53571 16.6694 10.3039C15.7092 11.5714 14.4417 12.378 12.8285 12.6084C11.4842 12.8005 10.2551 12.5316 9.17966 11.725C8.18103 10.9568 7.6049 9.9582 7.45127 8.72912C7.25922 7.26959 7.72013 5.92528 8.60353 4.77302C9.56375 3.50553 10.8312 2.69894 12.406 2.43008C13.6735 2.19963 14.9026 2.35326 15.978 3.08303C16.7078 3.54394 17.2071 4.19689 17.5528 5.00347C17.5912 5.1571 17.5528 5.19551 17.3991 5.23392Z" fill="#00ACD7"/>
<path id="Vector_2" d="M21.8548 12.7236C20.6258 12.6852 19.5119 12.3396 18.5517 11.533C17.7451 10.8416 17.2458 9.95822 17.0921 8.92118C16.8617 7.38483 17.2842 6.04052 18.206 4.84985C19.2046 3.54395 20.3953 2.891 22.0085 2.58373C23.3912 2.35328 24.6971 2.4685 25.8493 3.27509C26.9248 4.00486 27.5777 5.00348 27.7698 6.30938C28.0002 8.153 27.4625 9.61254 26.2334 10.88C25.35 11.8018 24.2362 12.3396 23.0071 12.6084C22.5846 12.6852 22.2005 12.6852 21.8548 12.7236ZM25.0812 7.2696C25.0812 7.07756 25.0812 6.96233 25.0428 6.8087C24.8123 5.46439 23.5832 4.69621 22.2773 5.00348C21.0098 5.27235 20.2033 6.07893 19.896 7.34642C19.6655 8.38346 20.1649 9.4589 21.1251 9.91981C21.8548 10.2271 22.623 10.1887 23.3144 9.84299C24.4282 9.30527 25.0044 8.42187 25.0812 7.2696Z" fill="#00ACD7"/>
</g>
</g>
</g>
</svg>
