<svg width="28" height="29" viewBox="0 0 28 29" fill="none" xmlns="http://www.w3.org/2000/svg">
<g id="java logo" clip-path="url(#clip0_552_4586)">
<g id="Group">
<path id="Vector" d="M11.1628 22.0834C7.17475 23.2968 13.5886 25.8038 18.666 23.4341C17.8344 23.0819 17.2389 22.6753 17.2389 22.6753C14.9739 23.1421 13.9235 23.1788 11.8682 22.9234C10.1717 22.711 11.1628 22.0834 11.1628 22.0834ZM10.2998 19.75C5.42035 21.3699 13.0145 23.2069 19.8327 21.2127C19.108 20.9571 18.6471 20.4897 18.6471 20.4897C15.3149 21.1315 13.3892 21.1109 10.9507 20.8593C9.06507 20.6642 10.2998 19.75 10.2998 19.75ZM23.9478 24.6023C23.9478 24.6023 24.7566 25.1135 23.0571 25.509C19.8254 26.2601 9.60623 26.4869 6.76741 25.5389C5.74692 25.1984 7.66062 24.7258 8.2626 24.6266C8.8904 24.5221 9.24916 24.5416 9.24916 24.5416C8.11428 23.9283 1.91374 25.7459 6.0996 26.2664C17.515 27.6866 26.9089 25.6269 23.9478 24.6023ZM11.8927 16.2544C11.8927 16.2544 6.82788 17.3989 10.0991 17.8145C11.4804 17.9904 14.2338 17.9506 16.7986 17.7462C18.8946 17.5779 20.9993 17.2203 20.9993 17.2203C20.9993 17.2203 20.2603 17.5214 19.7255 17.8688C14.5823 19.1557 4.64641 18.557 7.50682 17.2406C9.92586 16.1282 11.8927 16.2544 11.8927 16.2544ZM21.0962 20.7711C21.0739 20.8399 20.9993 20.9167 20.9993 20.9167C27.4374 18.9644 25.0705 14.0351 21.9928 15.2832C21.7225 15.3939 21.5809 15.6497 21.5809 15.6497C21.5809 15.6497 21.7509 15.5704 22.1322 15.4788C23.6879 15.1047 25.9167 17.8815 21.0962 20.7711ZM11.6751 28.4226C16.888 28.7065 24.8931 28.2651 25.0827 26.1667C25.0827 26.1667 24.7182 26.9622 20.7745 27.594C16.3251 28.3063 10.8375 28.2231 7.58268 27.7666C7.58268 27.7666 8.24898 28.2357 11.6751 28.4226Z" fill="white"/>
<path id="Vector_2" d="M16.9066 14.3346C12.6309 8.83097 21.583 6.33333 21.583 6.33333C15.8798 10.0283 16.9333 11.1 18.3071 13.2568C19.778 15.5697 16.5752 17.4167 16.5752 17.4167C16.5752 17.4167 18.1679 15.9568 16.9066 14.3346ZM17.8822 0.5C17.8822 0.5 20.9384 3.48402 14.9835 8.0726C10.2083 11.7534 13.8946 13.8521 14.9816 16.25C12.1942 13.7953 10.1486 11.6345 11.521 9.62338C13.5352 6.67124 19.1153 5.23993 17.8822 0.5Z" fill="#E76F00"/>
</g>
</g>
<defs>
<clipPath id="clip0_552_4586">
<rect width="28" height="28" fill="white" transform="translate(0 0.5)"/>
</clipPath>
</defs>
</svg>
