<svg width="28" height="29" viewBox="0 0 28 29" fill="none" xmlns="http://www.w3.org/2000/svg">
<g id="XMLID_1_">
<path id="XMLID_2_" d="M28 0.5H0V28.5H28V0.5Z" fill="#F7DF1E"/>
<path id="XMLID_3_" d="M7.36426 23.8973L9.50453 22.6009C9.91878 23.3373 10.2947 23.951 11.1922 23.951C12.0591 23.951 12.6037 23.6135 12.6037 22.294V13.3571H15.2349V22.3401C15.2349 25.0634 13.6393 26.3061 11.3073 26.3061C9.20535 26.3061 7.98563 25.2168 7.36426 23.8973Z" fill="black"/>
<path id="XMLID_4_" d="M16.6699 23.6135L18.8102 22.3707C19.3779 23.2913 20.1066 23.9663 21.4031 23.9663C22.4924 23.9663 23.1905 23.4217 23.1905 22.6699C23.1905 21.7647 22.477 21.4502 21.2727 20.9209L20.6129 20.637C18.7181 19.8315 17.4524 18.8113 17.4524 16.671C17.4524 14.6995 18.956 13.1959 21.3033 13.1959C22.9757 13.1959 24.1801 13.7789 25.0469 15.2978L22.9987 16.6096C22.5461 15.8041 22.0628 15.4819 21.311 15.4819C20.5439 15.4819 20.0529 15.9729 20.0529 16.6096C20.0529 17.3998 20.5439 17.7219 21.6716 18.2052L22.3313 18.4891C24.5713 19.448 25.8294 20.4222 25.8294 22.6239C25.8294 24.9943 23.9653 26.2907 21.4721 26.2907C19.0173 26.3061 17.437 25.14 16.6699 23.6135Z" fill="black"/>
</g>
</svg>
