<svg width="28" height="29" viewBox="0 0 28 29" fill="none" xmlns="http://www.w3.org/2000/svg">
<g id="Laravel logo" clip-path="url(#clip0_552_4608)">
<path id="Vector" d="M27.9344 6.88832C27.9448 6.92542 27.9501 6.96368 27.9502 7.00211V12.9757C27.9502 13.0523 27.9293 13.1276 27.8896 13.194C27.8498 13.2603 27.7927 13.3154 27.7239 13.3535L22.5402 16.2401V21.9616C22.5402 22.1173 22.4546 22.261 22.315 22.3394L11.4944 28.3642C11.4696 28.3778 11.4426 28.3865 11.4156 28.3957C11.4055 28.399 11.3959 28.405 11.3852 28.4077C11.3096 28.427 11.2301 28.427 11.1544 28.4077C11.142 28.4044 11.1308 28.3979 11.119 28.3936C11.0942 28.3848 11.0683 28.3772 11.0447 28.3642L0.226286 22.3394C0.15756 22.3012 0.100455 22.2462 0.0607282 22.1799C0.0210009 22.1135 5.44546e-05 22.0382 0 21.9616L0 4.04092C0 4.00172 0.005629 3.96361 0.0157612 3.92659C0.0191386 3.91407 0.0270192 3.90263 0.0315224 3.89011C0.0399659 3.86724 0.0478465 3.84383 0.0602302 3.8226C0.0686737 3.80844 0.0810575 3.79701 0.0911897 3.78395C0.104136 3.76652 0.115957 3.74856 0.131156 3.73331C0.144102 3.72079 0.160989 3.71153 0.175625 3.70065C0.191949 3.68758 0.206584 3.67342 0.22516 3.66308L5.63519 0.650714C5.70368 0.612593 5.78132 0.592529 5.86035 0.592529C5.93937 0.592529 6.01701 0.612593 6.08551 0.650714L11.495 3.66308H11.4961C11.5141 3.67397 11.5293 3.68758 11.5456 3.7001C11.5603 3.71099 11.5766 3.72079 11.5895 3.73277C11.6053 3.74856 11.6166 3.76652 11.6301 3.78395C11.6396 3.79701 11.6526 3.80844 11.6605 3.8226C11.6734 3.84438 11.6807 3.86724 11.6897 3.89011C11.6942 3.90263 11.7021 3.91407 11.7055 3.92713C11.7159 3.96423 11.7212 4.00249 11.7213 4.04092V15.234L16.229 12.7236V7.00156C16.229 6.96345 16.2346 6.9248 16.2447 6.88832C16.2487 6.87525 16.256 6.86382 16.2605 6.8513C16.2695 6.82843 16.2774 6.80502 16.2897 6.78379C16.2982 6.76963 16.3106 6.7582 16.3201 6.74513C16.3337 6.72771 16.3449 6.70975 16.3607 6.6945C16.3736 6.68198 16.3899 6.67272 16.4046 6.66184C16.4215 6.64877 16.4361 6.63461 16.4541 6.62427L21.8647 3.6119C21.9332 3.57373 22.0108 3.55363 22.0899 3.55363C22.1689 3.55363 22.2465 3.57373 22.315 3.6119L27.7245 6.62427C27.7436 6.63516 27.7583 6.64877 27.7751 6.66129C27.7892 6.67218 27.8055 6.68198 27.8185 6.69396C27.8343 6.70975 27.8455 6.72771 27.859 6.74513C27.8692 6.7582 27.8815 6.76963 27.8894 6.78379C27.9024 6.80502 27.9097 6.82843 27.9187 6.8513C27.9238 6.86382 27.9311 6.87525 27.9344 6.88832ZM27.0484 12.7236V7.75615L25.1554 8.81018L22.5402 10.2665V15.234L27.049 12.7236H27.0484ZM21.639 21.7095V16.7388L19.0665 18.1598L11.7207 22.2147V27.2323L21.639 21.7095ZM0.901765 4.79496V21.7095L10.8189 27.2317V22.2153L5.638 19.3793L5.63631 19.3782L5.63406 19.3771C5.61661 19.3673 5.60198 19.3532 5.58565 19.3412C5.57158 19.3303 5.55525 19.3216 5.54287 19.3096L5.54175 19.308C5.52711 19.2944 5.51698 19.2775 5.50459 19.2623C5.49334 19.2476 5.47983 19.235 5.47082 19.2198L5.47026 19.2182C5.46012 19.2018 5.45393 19.1822 5.44662 19.1637C5.4393 19.1474 5.42973 19.1321 5.42522 19.1147C5.4196 19.094 5.41847 19.0717 5.41622 19.0505C5.41397 19.0342 5.40946 19.0178 5.40946 19.0015V7.30536L2.7948 5.84845L0.901765 4.79496ZM5.86091 1.53161L1.35377 4.04092L5.85978 6.55023L10.3664 4.04037L5.85978 1.53161H5.86091ZM8.20482 17.1918L10.8195 15.736V4.79496L8.92646 5.84899L6.31123 7.30536V18.2464L8.20482 17.1918ZM22.0899 4.4928L17.5833 7.00211L22.0899 9.51141L26.5959 7.00156L22.0899 4.4928ZM21.639 10.2665L19.0238 8.81018L17.1307 7.75615V12.7236L19.7454 14.1794L21.639 15.234V10.2665ZM11.2692 21.4607L17.8794 17.8108L21.1836 15.9869L16.6804 13.4793L11.4955 16.3664L6.76999 18.9977L11.2692 21.4607Z" fill="#FF2D20"/>
</g>
<defs>
<clipPath id="clip0_552_4608">
<rect width="28" height="28" fill="white" transform="translate(0 0.5)"/>
</clipPath>
</defs>
</svg>
