<svg width="471" height="321" viewBox="0 0 471 321" fill="none" xmlns="http://www.w3.org/2000/svg">
<path d="M0.75 64C0.75 28.6538 29.4038 0 64.75 0H406.75C442.096 0 470.75 28.6538 470.75 64V321H0.75V64Z" fill="#323232"/>
<path d="M107.5 0H363.5V24C363.5 37.2548 352.755 48 339.5 48H131.5C118.245 48 107.5 37.2548 107.5 24V0Z" fill="#1A1A1A"/>
<rect x="60.1667" y="99.6667" width="154.667" height="154.667" rx="45.3333" stroke="#5B5B5B" stroke-width="5.33333"/>
<path d="M156.703 188.861C154.747 188.861 153.156 187.269 153.156 185.312C153.156 183.356 154.747 181.765 156.703 181.765C158.66 181.765 160.251 183.356 160.251 185.312C160.251 187.269 158.66 188.861 156.703 188.861ZM117.492 188.861C115.536 188.861 113.945 187.269 113.945 185.312C113.945 183.356 115.536 181.765 117.492 181.765C119.448 181.765 121.039 183.356 121.039 185.312C121.039 187.269 119.448 188.861 117.492 188.861ZM157.976 167.491L165.066 155.212C165.261 154.873 165.314 154.47 165.213 154.093C165.111 153.715 164.865 153.393 164.526 153.197C164.187 153.002 163.785 152.949 163.407 153.05C163.029 153.152 162.707 153.398 162.511 153.737L155.332 166.172C149.842 163.666 143.677 162.271 137.098 162.271C130.519 162.271 124.353 163.666 118.863 166.172L111.684 153.737C111.488 153.398 111.166 153.152 110.789 153.05C110.411 152.949 110.008 153.002 109.669 153.197C109.331 153.393 109.084 153.715 108.982 154.093C108.881 154.47 108.934 154.873 109.13 155.212L116.22 167.491C104.045 174.113 95.7182 186.438 94.5 201H179.696C178.476 186.439 170.15 174.113 157.976 167.491" fill="#5B5B5B"/>
<rect x="256.167" y="99.6667" width="154.667" height="154.667" rx="45.3333" stroke="#6228FF" stroke-width="5.33333"/>
<path d="M355.801 179.024C355.919 191.261 366.554 195.382 366.672 195.438C366.554 195.729 364.951 201.279 361.067 206.939C357.688 211.865 354.199 216.776 348.649 216.894C343.217 217.005 341.504 213.689 335.26 213.689C329.086 213.689 327.144 216.776 321.99 217.005C316.731 217.179 312.666 211.629 309.239 206.71C302.316 196.645 296.995 178.282 304.147 165.92C307.685 159.746 314.04 155.854 320.907 155.792C326.11 155.681 331.091 159.344 334.296 159.344C337.494 159.344 343.502 154.994 349.794 155.625C352.43 155.736 359.867 156.714 364.612 163.631C364.209 163.86 355.746 168.785 355.801 179.024ZM345.618 148.931C348.42 145.497 350.37 140.745 349.849 136C345.791 136.173 340.873 138.692 337.897 142.126C335.26 145.157 332.971 150.02 333.602 154.654C338.125 155.001 342.815 152.309 345.618 148.931Z" fill="#6228FF"/>
</svg>
