<svg width="29" height="26" viewBox="0 0 29 26" fill="none" xmlns="http://www.w3.org/2000/svg">
<g id="reactjs logo" clip-path="url(#clip0_1001_735)">
<path id="path4783" d="M11.9903 12.5958C11.9903 11.2152 13.1117 10.0938 14.4923 10.0938C15.8729 10.0938 16.9942 11.2152 16.9942 12.5958C16.9942 13.9764 15.8729 15.0978 14.4923 15.0978C13.1117 15.0978 11.9903 13.9764 11.9903 12.5958ZM28.4873 12.5958C28.4873 14.3153 26.4588 16.0547 23.1893 17.1363C23.0199 17.1911 22.8454 17.2459 22.666 17.3007C22.7308 17.5549 22.7856 17.8041 22.8355 18.0483C23.1395 19.5934 23.1893 21.0288 22.975 22.1951C22.7458 23.4361 22.2274 24.3183 21.4798 24.7519C21.106 24.9712 20.6625 25.0809 20.169 25.0809C18.8134 25.0809 17.0939 24.2635 15.2997 22.7184C15.0455 22.4991 14.7963 22.2698 14.5421 22.0256C14.3478 22.215 14.1534 22.3944 13.959 22.5639C12.7728 23.6006 11.5517 24.3582 10.4353 24.7519C9.8522 24.9612 9.30397 25.0659 8.81554 25.0659C8.30717 25.0659 7.85861 24.9562 7.47983 24.737C6.04943 23.9096 5.55103 21.5272 6.15409 18.3623C6.2139 18.0384 6.28866 17.7044 6.37339 17.3655C6.10923 17.2908 5.85505 17.211 5.61084 17.1263C4.12063 16.6179 2.8547 15.9401 1.95259 15.1675C0.995671 14.3502 0.487305 13.458 0.487305 12.5958C0.487305 10.9411 2.30147 9.32124 5.34669 8.26462C5.68061 8.14999 6.02949 8.04034 6.38834 7.93567C6.30859 7.62168 6.23882 7.31267 6.17901 7.00864C5.88496 5.50345 5.83013 4.12286 6.01952 3.01142C6.22885 1.80029 6.72226 0.938047 7.45491 0.514402C8.94014 -0.347841 11.467 0.539322 14.0387 2.82701C14.1933 2.96656 14.3478 3.1111 14.5072 3.26062C14.7415 3.03634 14.9757 2.82202 15.205 2.61768C16.3613 1.6109 17.5325 0.873254 18.5891 0.484498C19.7404 0.0608521 20.7372 0.0608521 21.4649 0.479513C22.9551 1.33677 23.4485 3.96836 22.7507 7.33758C22.7109 7.54193 22.661 7.74628 22.6112 7.95561C22.9202 8.04532 23.2192 8.14002 23.5083 8.2397C24.9586 8.73811 26.1797 9.38603 27.0469 10.1037C27.9889 10.8912 28.4873 11.7535 28.4873 12.5958ZM15.3446 4.1129C16.142 4.97015 16.9394 5.96697 17.707 7.06346C19.0277 7.18806 20.2887 7.38743 21.4549 7.65657C21.4998 7.46717 21.5446 7.28276 21.5795 7.09835C22.2324 3.9235 21.6692 1.97972 20.8668 1.5162C20.4581 1.28195 19.7952 1.31185 18.9978 1.60591C18.0758 1.94483 17.0341 2.60771 15.9875 3.51979C15.7732 3.7042 15.5589 3.90357 15.3446 4.1129ZM7.85363 16.5033C8.65106 16.6777 9.51329 16.8173 10.4303 16.917C10.1313 16.4485 9.83725 15.97 9.55317 15.4815C9.27406 15.0031 9.00991 14.5196 8.76071 14.0362C8.40685 14.8735 8.09784 15.7058 7.85363 16.5033ZM9.55317 9.76981C9.83227 9.29134 10.1164 8.81785 10.4104 8.35932C9.52326 8.46897 8.671 8.61849 7.86858 8.79293C8.1128 9.58041 8.41183 10.3928 8.76071 11.2202C9.00991 10.7367 9.27406 10.2533 9.55317 9.76981ZM10.5898 14.8835C11.0234 15.6311 11.482 16.3587 11.9604 17.0515C12.7728 17.1014 13.6201 17.1313 14.4923 17.1313C15.3695 17.1313 16.2267 17.1014 17.0541 17.0416C17.5076 16.3587 17.9562 15.6361 18.3997 14.8735C18.8383 14.1159 19.242 13.3533 19.6059 12.6057C19.242 11.8731 18.8433 11.1255 18.3997 10.3629C17.9661 9.61032 17.5126 8.89261 17.0491 8.20481C16.2167 8.14002 15.3595 8.11012 14.4923 8.11012C13.635 8.11012 12.7778 8.145 11.9405 8.2098C11.472 8.8976 11.0135 9.62029 10.5848 10.3679C10.1562 11.1105 9.75751 11.8681 9.39368 12.6257C9.75751 13.3783 10.1562 14.1358 10.5898 14.8835ZM18.5792 16.897C19.5012 16.7874 20.3784 16.6378 21.1908 16.4534C20.9416 15.6709 20.6276 14.8436 20.2488 13.9863C19.9946 14.4797 19.7205 14.9782 19.4364 15.4716C19.1523 15.96 18.8682 16.4385 18.5792 16.897ZM21.131 8.80788C20.3235 8.62347 19.4663 8.47395 18.5742 8.35932C18.8632 8.81287 19.1473 9.28137 19.4264 9.75984C19.7105 10.2533 19.9797 10.7417 20.2338 11.2202C20.5877 10.3928 20.8917 9.58041 21.131 8.80788ZM12.8426 6.95381C13.3858 6.92889 13.9341 6.91394 14.4873 6.91394C15.0505 6.91394 15.6037 6.92889 16.1569 6.95381C15.6137 6.23112 15.0605 5.56326 14.5072 4.96517C13.9441 5.56824 13.3858 6.23611 12.8426 6.95381ZM7.35523 6.77937C7.41005 7.06346 7.47485 7.34755 7.5496 7.64161C8.71087 7.37746 9.97182 7.18308 11.2926 7.05848C12.0601 5.97694 12.8625 4.98511 13.6749 4.10791C13.5354 3.97334 13.3958 3.84376 13.2563 3.72414C10.8241 1.57102 8.86039 1.08757 8.05797 1.55109C7.64928 1.78534 7.34526 2.37844 7.20073 3.21576C7.03625 4.18267 7.0861 5.41872 7.35523 6.77937ZM8.07292 12.6307C7.5197 11.4245 7.05619 10.2333 6.70731 9.09198C6.37339 9.18667 6.05441 9.28635 5.7454 9.396C2.94441 10.3729 1.68844 11.7086 1.68844 12.6008C1.68844 13.5278 3.0391 14.9881 5.99959 15.9999C6.22387 16.0746 6.45313 16.1494 6.69236 16.2192C7.04622 15.0579 7.50973 13.8518 8.07292 12.6307ZM13.7048 21.1733C12.8825 20.2962 12.0751 19.2944 11.3025 18.2028C9.93693 18.0932 8.671 17.9088 7.53465 17.6546C7.45491 17.9736 7.39012 18.2826 7.33031 18.5816C6.77709 21.4973 7.31037 23.2517 8.07791 23.6953C8.88033 24.1588 10.8191 23.7202 13.1765 21.6568C13.346 21.5073 13.5254 21.3428 13.7048 21.1733ZM16.1819 18.2876C15.6286 18.3125 15.0605 18.3274 14.4923 18.3274C13.9341 18.3274 13.3908 18.3175 12.8575 18.2975C13.4108 19.0252 13.974 19.6981 14.5421 20.3111C15.0854 19.708 15.6386 19.0352 16.1819 18.2876ZM21.6692 18.2826C21.6244 18.0583 21.5745 17.834 21.5147 17.5998C20.3584 17.8689 19.0825 18.0633 17.7269 18.1829C16.9544 19.3043 16.1619 20.3061 15.3794 21.1634C15.6137 21.3926 15.8529 21.607 16.0822 21.8063C18.33 23.7401 20.1142 24.1588 20.8867 23.7102C21.6892 23.2517 22.2773 21.3528 21.6692 18.2826ZM27.2961 12.5958C27.2961 12.1223 26.9373 11.5641 26.2844 11.0208C25.5318 10.3928 24.4353 9.81965 23.1245 9.3661C22.8554 9.27639 22.5763 9.18667 22.2922 9.10194C21.9483 10.2134 21.4898 11.3946 20.9266 12.6008C21.5147 13.8418 21.9932 15.033 22.3421 16.1444C22.5015 16.0946 22.661 16.0447 22.8155 15.9949C25.8907 14.9782 27.2961 13.5178 27.2961 12.5958Z" fill="#00D8FF"/>
</g>
<defs>
<clipPath id="clip0_1001_735">
<rect width="28" height="24.9147" fill="white" transform="translate(0.5 0.166626)"/>
</clipPath>
</defs>
</svg>
