<svg width="32" height="29" viewBox="0 0 32 29" fill="none" xmlns="http://www.w3.org/2000/svg">
<g id="react logo" clip-path="url(#clip0_552_4526)">
<path id="Vector" d="M25.8488 9.56606C25.5227 9.4538 25.1848 9.34759 24.8368 9.24714C24.894 9.01373 24.9465 8.78334 24.9931 8.55687C25.7592 4.83814 25.2583 1.84231 23.5479 0.855955C21.9078 -0.0898293 19.2256 0.896302 16.5167 3.2538C16.2562 3.48049 15.995 3.72051 15.7338 3.97205C15.5599 3.80562 15.3862 3.64479 15.2129 3.49096C12.3739 0.97017 9.52819 -0.0921237 7.81944 0.897086C6.18092 1.84561 5.69569 4.66198 6.38529 8.18625C6.45188 8.52665 6.52973 8.87428 6.61775 9.22772C6.215 9.34205 5.82619 9.46393 5.45417 9.59359C2.12571 10.754 0 12.5727 0 14.4592C0 16.4076 2.28195 18.3618 5.7488 19.5468C6.02239 19.6403 6.30628 19.7287 6.59884 19.8127C6.50387 20.1949 6.42127 20.5695 6.35194 20.9349C5.69441 24.398 6.2079 27.1478 7.84205 28.0904C9.52998 29.0637 12.3628 28.0632 15.1213 25.652C15.3393 25.4614 15.5581 25.2593 15.7773 25.0474C16.0614 25.321 16.345 25.5799 16.6272 25.8228C19.2991 28.122 21.938 29.0505 23.5706 28.1053C25.2569 27.1291 25.8049 24.1752 25.0934 20.5812C25.0391 20.3067 24.9759 20.0263 24.9048 19.7409C25.1038 19.6821 25.2991 19.6213 25.4895 19.5582C29.0936 18.3641 31.4386 16.4336 31.4386 14.4592C31.4386 12.5659 29.2443 10.735 25.8488 9.56606ZM25.0671 18.2834C24.8952 18.3403 24.7188 18.3953 24.5391 18.4486C24.1412 17.189 23.6042 15.8496 22.9471 14.4658C23.5742 13.1149 24.0904 11.7926 24.4771 10.5412C24.7987 10.6342 25.1109 10.7324 25.4117 10.836C28.3209 11.8375 30.0955 13.3183 30.0955 14.4592C30.0955 15.6746 28.179 17.2523 25.0671 18.2834ZM23.7759 20.842C24.0905 22.4312 24.1354 23.8681 23.927 24.9913C23.7398 26.0006 23.3632 26.6735 22.8977 26.943C21.9069 27.5165 19.7881 26.771 17.5031 24.8047C17.2411 24.5793 16.9773 24.3386 16.7126 24.0839C17.5984 23.115 18.4838 21.9887 19.3479 20.7379C20.8677 20.603 22.3036 20.3825 23.6057 20.0815C23.6699 20.3402 23.7268 20.5939 23.7759 20.842ZM10.7181 26.8439C9.75013 27.1858 8.97916 27.1956 8.51313 26.9268C7.52145 26.3549 7.10919 24.147 7.67154 21.1854C7.73595 20.8462 7.81261 20.4978 7.90098 20.1417C9.18885 20.4264 10.6142 20.6314 12.1377 20.7549C13.0076 21.9789 13.9185 23.104 14.8365 24.0891C14.6359 24.2827 14.4361 24.4671 14.2375 24.6408C13.0177 25.707 11.7954 26.4634 10.7181 26.8439ZM6.18316 18.2759C4.65019 17.752 3.3842 17.071 2.51642 16.3279C1.73667 15.6601 1.34299 14.9972 1.34299 14.4592C1.34299 13.3144 3.04972 11.8543 5.89625 10.8618C6.24164 10.7414 6.6032 10.6279 6.97841 10.5213C7.37182 11.801 7.88788 13.139 8.51066 14.4919C7.87982 15.8649 7.35643 17.2242 6.95916 18.5189C6.69167 18.442 6.43252 18.3611 6.18316 18.2759ZM7.70332 7.92833C7.1125 4.90882 7.50489 2.63102 8.49231 2.05944C9.54408 1.45053 11.8698 2.3187 14.3211 4.49528C14.4778 4.63439 14.6351 4.78 14.7929 4.93065C13.8794 5.91146 12.9769 7.02809 12.1147 8.24489C10.6361 8.38194 9.22074 8.60209 7.91944 8.89689C7.83763 8.56779 7.76516 8.24445 7.70332 7.92833ZM21.2645 11.2769C20.9534 10.7396 20.6341 10.215 20.3085 9.70467C21.3116 9.83148 22.2726 9.99981 23.1752 10.2058C22.9042 11.0742 22.5665 11.9821 22.1689 12.9129C21.8838 12.3715 21.5821 11.8256 21.2645 11.2769ZM15.7343 5.89048C16.3538 6.56161 16.9742 7.31092 17.5843 8.12391C16.9695 8.09486 16.3469 8.07975 15.7193 8.07975C15.0976 8.07975 14.4797 8.09453 13.8686 8.12307C14.4794 7.31763 15.1051 6.56933 15.7343 5.89048ZM10.1687 11.2862C9.85791 11.8251 9.56188 12.368 9.28118 12.9119C8.89007 11.9844 8.55549 11.0723 8.28218 10.1916C9.17916 9.99085 10.1357 9.82672 11.1324 9.70232C10.8022 10.2173 10.4802 10.7459 10.1687 11.2862ZM11.1611 19.3119C10.1313 19.197 9.16042 19.0414 8.26365 18.8462C8.54133 17.9497 8.8833 17.0182 9.28269 16.0707C9.56411 16.6142 9.86132 17.1574 10.174 17.6974C10.4924 18.2475 10.8224 18.7864 11.1611 19.3119ZM15.7715 23.1227C15.1349 22.4359 14.5 21.6761 13.8799 20.859C14.4818 20.8826 15.0956 20.8947 15.7193 20.8947C16.3601 20.8947 16.9936 20.8802 17.6171 20.8525C17.0049 21.6844 16.3867 22.4453 15.7715 23.1227ZM22.1818 16.0224C22.602 16.9801 22.9562 17.9068 23.2374 18.788C22.3259 18.9959 21.3417 19.1634 20.3048 19.2879C20.6312 18.7707 20.9533 18.237 21.2699 17.6881C21.5901 17.1328 21.8942 16.5766 22.1818 16.0224ZM20.1065 17.0172C19.6151 17.8693 19.1105 18.6827 18.5983 19.4505C17.6654 19.5173 16.7016 19.5516 15.7193 19.5516C14.7409 19.5516 13.7893 19.5212 12.8729 19.4617C12.34 18.6838 11.8245 17.868 11.3362 17.0245C10.8492 16.1833 10.4011 15.335 9.9949 14.4915C10.4009 13.646 10.848 12.7967 11.3322 11.957C11.8177 11.1151 12.3286 10.3034 12.8565 9.53036C13.7915 9.45968 14.7503 9.4228 15.7192 9.4228C16.6926 9.4228 17.6526 9.45996 18.5873 9.53125C19.1072 10.2986 19.6147 11.1079 20.1021 11.9499C20.5951 12.8014 21.0479 13.645 21.4574 14.4724C21.0491 15.314 20.5973 16.1661 20.1065 17.0172ZM22.8771 2.01948C23.9298 2.62659 24.3393 5.07508 23.6778 8.2858C23.6356 8.49067 23.5881 8.69935 23.5365 8.91082C22.2322 8.60987 20.8158 8.38591 19.3329 8.2468C18.4691 7.01662 17.5739 5.89826 16.6753 4.93003C16.9169 4.69763 17.1581 4.47603 17.3984 4.2669C19.7194 2.24702 21.8887 1.44953 22.8771 2.01948ZM15.7193 11.6519C17.2697 11.6519 18.5267 12.9087 18.5267 14.4592C18.5267 16.0097 17.2697 17.2666 15.7193 17.2666C14.1689 17.2666 12.9119 16.0097 12.9119 14.4592C12.9119 12.9087 14.1689 11.6519 15.7193 11.6519Z" fill="white"/>
</g>
<defs>
<clipPath id="clip0_552_4526">
<rect width="31.5" height="28" fill="white" transform="translate(0 0.5)"/>
</clipPath>
</defs>
</svg>
