<svg width="28" height="29" viewBox="0 0 28 29" fill="none" xmlns="http://www.w3.org/2000/svg">
<g id="Spring logo" clip-path="url(#clip0_552_4596)">
<path id="Vector" d="M25.4655 1.96008C25.0716 2.90058 24.572 3.79368 23.9703 4.61388C21.3373 1.98196 17.7635 0.501953 14.0401 0.501953C6.33811 0.501953 0 6.84482 0 14.5547C0 18.4005 1.57541 22.0823 4.36155 24.7361L4.8794 25.1954C7.41026 27.3279 10.6158 28.5017 13.9234 28.5017C21.2462 28.5017 27.4019 22.7639 27.9234 15.4514C28.3063 11.8717 27.2561 7.34423 25.4655 1.96008ZM6.35634 24.8163C6.13024 25.097 5.7838 25.261 5.42277 25.261C4.7627 25.261 4.22297 24.7178 4.22297 24.058C4.22297 23.3982 4.76635 22.8551 5.42277 22.8551C5.69627 22.8551 5.96614 22.9499 6.17765 23.1248C6.69185 23.5404 6.77208 24.3023 6.35634 24.8163ZM25.4071 20.6096C21.9427 25.2282 14.5434 23.6716 9.79891 23.894C9.79891 23.894 8.9565 23.945 8.11045 24.0836C8.11045 24.0836 8.42771 23.9487 8.8398 23.7919C12.1693 22.6327 13.7447 22.4067 15.7687 21.3678C19.5796 19.4285 23.3467 15.1853 24.1308 10.7708C22.6793 15.0176 18.2813 18.6666 14.2735 20.1503C11.5275 21.1637 6.56786 22.1479 6.56786 22.1479L6.36728 22.0422C2.99036 20.3981 2.88825 13.082 9.02579 10.7198C11.7135 9.68452 14.2844 10.2532 17.1873 9.56058C20.2871 8.82423 23.8718 6.49851 25.3306 3.4656C26.9643 8.31753 28.9299 15.9144 25.4071 20.6096Z" fill="#77BC1F"/>
</g>
<defs>
<clipPath id="clip0_552_4596">
<rect width="28" height="28" fill="white" transform="translate(0 0.5)"/>
</clipPath>
</defs>
</svg>
