<svg width="29" height="28" viewBox="0 0 29 28" fill="none" xmlns="http://www.w3.org/2000/svg">
<g id="Group">
<g id="Group_2">
<path id="Vector" d="M28.4979 7.75544C28.4962 7.47384 28.4931 7.19238 28.4853 6.91046C28.4689 6.29719 28.4327 5.67836 28.3237 5.07165C28.2131 4.45551 28.0323 3.8826 27.7473 3.32289C27.4676 2.77322 27.102 2.27023 26.6658 1.83404C26.2297 1.39786 25.7267 1.03225 25.1768 0.752391C24.6176 0.467775 24.0446 0.28702 23.429 0.176417C22.8219 0.0670877 22.2031 0.0310687 21.5894 0.0144736C21.3076 0.00683606 21.0261 0.00363018 20.7444 0.00188581C20.4101 0 20.0755 0 19.7412 0H12.3293H9.25866C8.92407 0 8.58986 0 8.25561 0.00193295C7.97382 0.00367733 7.69199 0.0068832 7.41062 0.0145207C7.25722 0.0186695 7.10348 0.0240441 6.94964 0.0314459C6.48819 0.0536984 6.02602 0.0944791 5.57098 0.176465C5.10929 0.25944 4.6715 0.381829 4.24559 0.557917C4.10364 0.616565 3.96296 0.681249 3.82313 0.752391C3.4107 0.962282 3.02459 1.2204 2.6734 1.52034C2.55634 1.62033 2.44315 1.72495 2.33415 1.834C1.89787 2.27018 1.53221 2.77318 1.2525 3.32284C0.967555 3.88255 0.78699 4.45546 0.676293 5.0716C0.567388 5.67831 0.531181 6.29714 0.51468 6.91041C0.506948 7.19234 0.503695 7.47379 0.501857 7.75539C0.499735 8.08984 0.500018 8.42434 0.500018 8.75869V13.3232V19.2412C0.500018 19.5758 0.499688 19.91 0.501857 20.2447C0.503695 20.5263 0.506948 20.8077 0.51468 21.0892C0.531181 21.7028 0.567341 22.3218 0.676293 22.9282C0.78699 23.5441 0.967555 24.1176 1.2525 24.6771C1.53221 25.2269 1.89787 25.7298 2.33415 26.1658C2.7701 26.6022 3.27323 26.9677 3.82317 27.2478C4.38246 27.5324 4.95541 27.713 5.57112 27.8236C6.17778 27.9328 6.79708 27.9691 7.41067 27.9855C7.69203 27.993 7.97387 27.9963 8.25565 27.9979C8.58991 28.0003 8.92412 28 9.25871 28H19.7412C20.0755 28 20.4101 28.0003 20.7444 27.9979C21.0261 27.9963 21.3076 27.993 21.5893 27.9855C22.2031 27.9691 22.8219 27.9327 23.4289 27.8236C24.0445 27.713 24.6175 27.5324 25.1767 27.2478C25.7266 26.9678 26.2296 26.6022 26.6657 26.1658C27.1019 25.7298 27.4676 25.2269 27.7473 24.6771C28.0322 24.1176 28.213 23.5442 28.3236 22.9282C28.4326 22.3218 28.4689 21.7028 28.4853 21.0892C28.493 20.8077 28.4961 20.5263 28.4978 20.2447C28.5 19.91 28.4998 19.5758 28.4998 19.2412V8.75869C28.4999 8.42434 28.5 8.08984 28.4979 7.75544Z" fill="#F05138"/>
<path id="Vector_2" d="M22.6867 17.2838C22.6861 17.2829 22.6854 17.2823 22.6847 17.2815C22.7157 17.1761 22.7477 17.0713 22.7748 16.9633C23.9369 12.3332 21.1006 6.85915 16.301 3.97693C18.4043 6.82823 19.3343 10.2818 18.508 13.302C18.4343 13.5714 18.3457 13.83 18.2478 14.0812C18.1416 14.0114 18.0077 13.9322 17.8279 13.833C17.8279 13.833 13.0535 10.8852 7.87894 5.67114C7.74317 5.53428 10.6382 9.80908 13.9238 13.2803C12.3759 12.4116 8.06191 9.2728 5.3309 6.77321C5.66643 7.33277 6.06551 7.8716 6.5042 8.39034C8.78483 11.2826 11.7591 14.8513 15.3223 17.5916C12.8187 19.1238 9.28113 19.2429 5.75888 17.5932C4.88769 17.185 4.06869 16.6923 3.31055 16.1326C4.80151 18.5175 7.0978 20.5751 9.8926 21.7763C13.2255 23.2086 16.5399 23.1115 19.0084 21.7998L19.0064 21.8026C19.0177 21.7955 19.032 21.7877 19.0437 21.7805C19.1451 21.726 19.2457 21.6705 19.3441 21.6119C20.5301 20.9963 22.8727 20.3717 24.1301 22.8182C24.4381 23.417 25.0925 20.2439 22.6867 17.2838Z" fill="white"/>
</g>
</g>
</svg>
