<svg width="28" height="29" viewBox="0 0 28 29" fill="none" xmlns="http://www.w3.org/2000/svg">
<g id="Symfony logo" clip-path="url(#clip0_552_4613)">
<path id="Vector" d="M14 28.4781C21.732 28.4781 28 22.2351 28 14.5341C28 6.83303 21.732 0.590088 14 0.590088C6.26801 0.590088 0 6.83303 0 14.5341C0 22.2351 6.26801 28.4781 14 28.4781Z" fill="#1A171B"/>
<path id="Vector_2" d="M20.0923 5.74247C18.672 5.79182 17.4324 6.57148 16.5096 7.64996C15.4878 8.83248 14.808 10.235 14.3182 11.6667C13.4421 10.9515 12.7662 10.0257 11.3606 9.62195C10.2742 9.31126 9.13308 9.43959 8.08374 10.2183C7.58663 10.5881 7.24418 11.1472 7.08132 11.6727C6.65968 13.0384 7.52462 14.2539 7.91749 14.6903L8.77641 15.6071C8.95349 15.7868 9.37994 16.2558 9.17148 16.9282C8.94616 17.6591 8.06132 18.1325 7.15373 17.8536C6.74838 17.7305 6.16607 17.4297 6.29644 17.0062C6.35037 16.833 6.47483 16.7033 6.54155 16.5535C6.6028 16.4249 6.63201 16.3284 6.6506 16.2717C6.81641 15.7325 6.5899 15.0309 6.00999 14.8528C5.46902 14.6877 4.91548 14.8185 4.70088 15.5123C4.45752 16.3005 4.83618 17.7309 6.86465 18.3538C9.24126 19.0811 11.2517 17.7923 11.5368 16.1112C11.7164 15.0584 11.2391 14.2762 10.3646 13.2702L9.65218 12.4854C9.22058 12.0559 9.07238 11.324 9.51907 10.7614C9.89598 10.2869 10.4328 10.0844 11.3119 10.3225C12.5952 10.6696 13.1673 11.5565 14.1218 12.2717C13.7277 13.5593 13.4701 14.8516 13.2369 16.0105L13.0949 16.8745C12.4126 20.439 11.8917 22.3963 10.5382 23.52C10.2656 23.7131 9.87574 24.0022 9.28818 24.0224C8.98018 24.0319 8.88065 23.8209 8.87638 23.7289C8.86905 23.5135 9.05127 23.4149 9.17235 23.3179C9.35326 23.2196 9.6268 23.0567 9.60821 22.5345C9.58852 21.9175 9.07533 21.3825 8.33355 21.407C7.77793 21.4259 6.93104 21.9467 6.96287 22.9C6.99601 23.8847 7.91749 24.6226 9.30677 24.5759C10.0494 24.5505 11.7078 24.2494 13.3422 22.3144C15.2444 20.0962 15.7764 17.5533 16.1766 15.6921L16.6233 13.2349C16.8715 13.2645 17.1368 13.2842 17.4255 13.2911C19.7946 13.3409 20.9797 12.1186 20.9973 11.2295C21.009 10.6915 20.6428 10.1621 20.1302 10.174C19.7632 10.1844 19.3022 10.4277 19.1915 10.9331C19.0835 11.429 19.9455 11.8765 19.2717 12.3112C18.7931 12.6197 17.935 12.8371 16.7267 12.6604L16.9464 11.4509C17.3948 9.15722 17.9479 6.33585 20.0462 6.26722C20.1991 6.25948 20.7587 6.27408 20.7717 6.64262C20.7755 6.76572 20.7449 6.79709 20.6002 7.07891C20.4529 7.29864 20.3973 7.48568 20.4042 7.70062C20.4244 8.28627 20.8715 8.67114 21.5182 8.64794C22.384 8.62005 22.633 7.78047 22.6188 7.3493C22.5838 6.33618 21.5118 5.69617 20.0923 5.74247Z" fill="white"/>
</g>
<defs>
<clipPath id="clip0_552_4613">
<rect width="28" height="28" fill="white" transform="translate(0 0.5)"/>
</clipPath>
</defs>
</svg>
