<svg width="28" height="29" viewBox="0 0 28 29" fill="none" xmlns="http://www.w3.org/2000/svg">
<g id="Typescript logo" clip-path="url(#clip0_552_4536)">
<path id="Vector" d="M0 14.5V0.5H28V28.5H0" fill="#007ACC"/>
<path id="Vector_2" d="M6.13867 14.5491V15.6901H9.77867V26.0501H12.3617V15.6901H16.0017V14.5701C16.0017 13.9401 16.0017 13.4291 15.9737 13.4151C15.9737 13.3941 13.7547 13.3871 11.0597 13.3871L6.15967 13.4081V14.5561L6.13867 14.5491ZM22.4977 13.3801C23.2117 13.5481 23.7577 13.8701 24.2477 14.3811C24.5067 14.6611 24.8917 15.1511 24.9197 15.2771C24.9197 15.3191 23.7087 16.1381 22.9737 16.5931C22.9457 16.6141 22.8337 16.4951 22.7217 16.3131C22.3577 15.7951 21.9867 15.5711 21.4057 15.5291C20.5657 15.4731 20.0057 15.9141 20.0057 16.6491C20.0057 16.8731 20.0477 16.9991 20.1317 17.1811C20.3207 17.5661 20.6707 17.7971 21.7557 18.2731C23.7577 19.1341 24.6257 19.7011 25.1507 20.5131C25.7457 21.4231 25.8787 22.8511 25.4797 23.9221C25.0317 25.0911 23.9397 25.8821 22.3787 26.1411C21.8887 26.2251 20.7687 26.2111 20.2437 26.1201C19.1237 25.9101 18.0527 25.3501 17.3947 24.6291C17.1357 24.3491 16.6387 23.6001 16.6667 23.5511L16.9327 23.3831L17.9827 22.7741L18.7737 22.3121L18.9557 22.5571C19.1867 22.9211 19.7047 23.4111 20.0057 23.5791C20.9157 24.0481 22.1337 23.9851 22.7357 23.4391C22.9947 23.2011 23.1067 22.9491 23.1067 22.5991C23.1067 22.2771 23.0577 22.1301 22.8967 21.8851C22.6727 21.5771 22.2247 21.3251 20.9647 20.7651C19.5157 20.1491 18.8997 19.7571 18.3257 19.1551C17.9967 18.7911 17.6957 18.2241 17.5557 17.7551C17.4507 17.3491 17.4157 16.3551 17.5137 15.9561C17.8147 14.5561 18.8717 13.5761 20.3837 13.2961C20.8737 13.1981 22.0287 13.2401 22.5117 13.3661L22.4977 13.3801Z" fill="white"/>
</g>
<defs>
<clipPath id="clip0_552_4536">
<rect width="28" height="28" fill="white" transform="translate(0 0.5)"/>
</clipPath>
</defs>
</svg>
