<svg width="28" height="29" viewBox="0 0 28 29" fill="none" xmlns="http://www.w3.org/2000/svg">
<g id="zend-plain logo">
<path id="Vector" fill-rule="evenodd" clip-rule="evenodd" d="M11.7268 18.1876C9.92277 18.194 8.11874 18.2187 6.31471 18.2187H6.05505C8.54793 14.7187 11.006 11.4055 13.4814 8.01247C13.3974 8.007 13.3571 7.98841 13.3165 7.98841C9.41156 7.98797 5.50687 7.98185 1.60196 7.979C1.4648 7.979 1.41777 8.01094 1.41887 8.15554C1.42565 8.9625 1.42237 9.76794 1.42237 10.5749C1.42237 10.805 1.42259 10.8046 1.65555 10.8046C3.63174 10.8046 5.60793 10.8042 7.58412 10.8048C7.66177 10.8048 7.73987 10.8151 7.85909 10.8238L0.389648 21.0148L0.517398 21.0218C4.26809 21.022 8.01855 21.0211 11.7692 21.0255C11.9226 21.0257 11.9429 20.964 11.9423 20.836C11.9383 20.0173 11.9357 19.2118 11.9442 18.393C11.9458 18.2228 11.899 18.187 11.7268 18.1876ZM27.397 8.15225C23.8593 8.15247 20.3217 8.14766 16.7839 8.15904C16.3876 8.16049 15.9931 8.21074 15.6092 8.30866C14.244 8.65932 13.1513 10.1411 13.2049 11.5582C13.2106 11.7137 13.3014 11.6562 13.395 11.6562H18.8261C19.7403 11.6562 20.6542 11.6958 21.5684 11.6903C22.5648 11.6842 23.5631 11.7244 24.5567 11.6654C25.5855 11.6043 26.4071 11.1277 26.9743 10.2485C27.3554 9.65747 27.5243 9.001 27.6078 8.31172C27.6306 8.12316 27.5098 8.15225 27.397 8.15225ZM21.9997 12.7753C20.2082 12.7747 18.4166 12.7736 16.6251 12.776C16.0478 12.7766 15.4919 12.8891 14.9836 13.1675C13.8014 13.8155 13.3471 14.9003 13.2075 16.1694C13.1894 16.337 13.2906 16.3324 13.4055 16.3322C14.3487 16.3307 15.2918 16.3313 16.2352 16.3313C16.5555 16.3315 16.876 16.3359 17.1962 16.3304C17.9012 16.3186 18.6102 16.3455 19.3093 16.2764C20.2187 16.1863 20.9578 15.7433 21.4835 14.9821C21.8967 14.3836 22.1034 13.7107 22.1754 12.9908C22.1964 12.7797 22.2047 12.7753 21.9997 12.7753ZM18.4103 17.378C17.8649 17.3815 17.3191 17.3728 16.7738 17.3826C16.5198 17.387 16.2664 17.4089 16.0154 17.448C14.0561 17.7534 13.3248 19.3932 13.2077 20.7921C13.197 20.9172 13.2421 20.9588 13.3672 20.9561C13.6931 20.9493 14.0193 20.9537 14.3457 20.9537L14.3466 20.9717C14.7897 20.9522 15.2375 20.9638 15.6761 20.9073C17.3235 20.6952 18.5811 19.209 18.5686 17.525C18.5671 17.3995 18.5183 17.3774 18.4103 17.378Z" fill="#68B604"/>
</g>
</svg>
